<svg xmlns="http://www.w3.org/2000/svg" xmlns:xlink="http://www.w3.org/1999/xlink" version="1.1" id="Layer_1" x="0px" y="0px" width="60px" height="60px" viewBox="0 0 60 60" enable-background="new 0 0 60 60" xml:space="preserve">
<rect x="-14" y="-13" display="none" fill="#000000" width="198" height="87"/>
<path d="M53.573,27.342c-0.093-0.127-0.228-0.205-0.381-0.256c0,0,0,0,0,0c0.131-0.476,0.169-0.964,0.118-1.322  C53.29,25.633,53.408,25.353,53.53,25c0.132-0.176,0.21-0.488,0.231-0.971c0.014-0.141,0.012-0.282-0.003-0.422  c-0.106-4.537-4.404-8.188-9.7-8.188c-5.363,0-9.71,3.742-9.71,8.358c0,0.154,0.003,0.285,0.009,0.404L34.348,24.2  c0,0,0.005,0.017,0.014,0.051c0.024,0.38,0.084,0.578,0.181,0.639c0.175,0.592,0.143,1.478,0.263,2.245  c-0.102,0.051-0.193,0.116-0.26,0.208c-0.298,0.402-0.171,1.279-0.171,1.889c0,1.223,0.739,2.214,1.656,2.231  c1.157,4.431,4.311,7.617,8.028,7.617c3.718,0,6.871-3.186,8.029-7.617c0.918-0.017,1.656-1.009,1.656-2.231  C53.744,28.622,53.87,27.745,53.573,27.342z"/>
<path d="M59.962,55.249c0.029-1.016,0.057-5.252,0.022-6.514c-3.274-5.693-7.321-8.005-10.536-8.946  c-0.524,1.844-3.012,9.329-5.39,11.098c-2.378-1.746-4.928-9.049-5.487-10.999c-3.174,0.985-7.175,3.296-10.365,8.844  c-0.035,1.261-0.079,5.501-0.051,6.517H59.962z"/>
<path d="M19.429,37.215c-0.09-0.006-0.18-0.01-0.271-0.017c-0.272,0.657-0.599,1.479-0.939,2.401  c-1.78,0.652-3.399,0.474-4.684,0.041c-0.358-0.943-0.703-1.783-0.989-2.451c-0.142,0.009-0.279,0.017-0.42,0.026  c-3.191,0.327-7.938,1.482-11.605,5.227c-0.129,2.715,4.56,2.632,7.626,5.805c3.451,3.566,4.107,6.916,7.63,6.781  c3.523,0.135,4.179-3.215,7.628-6.781c3.067-3.173,7.757-3.09,7.627-5.805C27.366,38.698,22.62,37.542,19.429,37.215z   M13.882,40.578c0.624,0.162,1.293,0.278,2.018,0.278c0.625,0,1.283-0.078,1.962-0.261c-0.983,2.821-1.955,6.312-1.955,9.09  C15.906,46.901,14.899,43.402,13.882,40.578z"/>
<path d="M29.122,24.517c-1.013-6.253-6.04-7.765-7.267-8.043c-1.601-1.272-3.758-2.056-6.138-2.056c-2.6,0-4.934,0.937-6.568,2.423  c-1.956,0.746-5.277,2.721-6.08,7.677c-1.157,7.134,0.15,10.155-3.068,11.974c3.029-0.23,5.617-1.448,6.338-4.775  c0.723-3.326-0.375-4.304,0.54-7.933c0.029-0.115,0.067-0.209,0.098-0.32c0.114,0.828,0.326,2.001,0.495,2.759  c0.306,5.101,4.036,10.918,8.172,10.918c3.908,0,7.451-5.193,8.089-10.068c0.425-0.184,1.148-1.293,1.038-2.692  c-0.095-1.204-0.094-1.777-0.124-2.144c0-0.03,0.004-0.057,0.006-0.093c0.01-0.086,0.003-0.174-0.001-0.261  c0.247,0.564,0.478,1.181,0.659,1.901c0.915,3.629-0.183,4.607,0.54,7.933c0.722,3.327,3.309,4.545,6.339,4.775  C28.972,34.672,30.279,31.651,29.122,24.517z M15.644,35.14c-2.898,0-6.202-5.105-6.202-9.584c0-0.243,0.011-0.482,0.03-0.719  c4.843-0.067,8.459-3.16,8.459-3.16l-0.011-0.007c0.242-0.174,0.446-0.333,0.631-0.474c0.604,0.856,2.025,2.821,3.287,4.209  c0.001,0.051,0.006,0.1,0.006,0.151C21.845,30.034,18.542,35.14,15.644,35.14z"/>
</svg>